<mxfile host="app.diagrams.net" agent="Mozilla/5.0 (Windows NT 10.0; Win64; x64) AppleWebKit/537.36 (KHTML, like Gecko) Chrome/131.0.0.0 Safari/537.36" version="25.0.3">
  <diagram name="Page-1" id="czlikgP000wDiGQAh75r">
    <mxGraphModel dx="3187" dy="1658" grid="1" gridSize="10" guides="1" tooltips="1" connect="1" arrows="1" fold="1" page="1" pageScale="1" pageWidth="850" pageHeight="1100" math="0" shadow="0">
      <root>
        <mxCell id="0" />
        <mxCell id="1" parent="0" />
        <mxCell id="k8R-MSBKNb3xLAhdDten-9" style="edgeStyle=orthogonalEdgeStyle;rounded=0;orthogonalLoop=1;jettySize=auto;html=1;entryX=0.5;entryY=0;entryDx=0;entryDy=0;" edge="1" parent="1" source="k8R-MSBKNb3xLAhdDten-1" target="k8R-MSBKNb3xLAhdDten-4">
          <mxGeometry relative="1" as="geometry" />
        </mxCell>
        <mxCell id="k8R-MSBKNb3xLAhdDten-1" value="&lt;font style=&quot;font-size: 24px;&quot;&gt;start&lt;/font&gt;" style="strokeWidth=2;html=1;shape=mxgraph.flowchart.start_1;whiteSpace=wrap;" vertex="1" parent="1">
          <mxGeometry x="375" y="40" width="100" height="60" as="geometry" />
        </mxCell>
        <mxCell id="k8R-MSBKNb3xLAhdDten-2" value="&lt;font style=&quot;font-size: 24px;&quot;&gt;end&lt;/font&gt;" style="strokeWidth=2;html=1;shape=mxgraph.flowchart.start_1;whiteSpace=wrap;" vertex="1" parent="1">
          <mxGeometry x="375" y="790" width="100" height="60" as="geometry" />
        </mxCell>
        <mxCell id="k8R-MSBKNb3xLAhdDten-10" style="edgeStyle=orthogonalEdgeStyle;rounded=0;orthogonalLoop=1;jettySize=auto;html=1;entryX=0.5;entryY=0;entryDx=0;entryDy=0;" edge="1" parent="1" source="k8R-MSBKNb3xLAhdDten-4" target="k8R-MSBKNb3xLAhdDten-5">
          <mxGeometry relative="1" as="geometry" />
        </mxCell>
        <mxCell id="k8R-MSBKNb3xLAhdDten-4" value="readMatrixA(matrixA, &quot;a15-10.txt&quot;" style="verticalLabelPosition=bottom;verticalAlign=top;html=1;shape=process;whiteSpace=wrap;rounded=1;size=0.14;arcSize=6;" vertex="1" parent="1">
          <mxGeometry x="375" y="150" width="100" height="60" as="geometry" />
        </mxCell>
        <mxCell id="k8R-MSBKNb3xLAhdDten-11" style="edgeStyle=orthogonalEdgeStyle;rounded=0;orthogonalLoop=1;jettySize=auto;html=1;entryX=0.5;entryY=0;entryDx=0;entryDy=0;" edge="1" parent="1" source="k8R-MSBKNb3xLAhdDten-5" target="k8R-MSBKNb3xLAhdDten-6">
          <mxGeometry relative="1" as="geometry" />
        </mxCell>
        <mxCell id="k8R-MSBKNb3xLAhdDten-5" value="readMatrixB(matrixA, &quot;b15-10.txt&quot;" style="verticalLabelPosition=bottom;verticalAlign=top;html=1;shape=process;whiteSpace=wrap;rounded=1;size=0.14;arcSize=6;" vertex="1" parent="1">
          <mxGeometry x="375" y="270" width="100" height="60" as="geometry" />
        </mxCell>
        <mxCell id="k8R-MSBKNb3xLAhdDten-12" style="edgeStyle=orthogonalEdgeStyle;rounded=0;orthogonalLoop=1;jettySize=auto;html=1;entryX=0.5;entryY=0;entryDx=0;entryDy=0;" edge="1" parent="1" source="k8R-MSBKNb3xLAhdDten-6" target="k8R-MSBKNb3xLAhdDten-7">
          <mxGeometry relative="1" as="geometry" />
        </mxCell>
        <mxCell id="k8R-MSBKNb3xLAhdDten-6" value="printMatrixA(matrixA)" style="verticalLabelPosition=bottom;verticalAlign=top;html=1;shape=process;whiteSpace=wrap;rounded=1;size=0.14;arcSize=6;" vertex="1" parent="1">
          <mxGeometry x="375" y="400" width="100" height="60" as="geometry" />
        </mxCell>
        <mxCell id="k8R-MSBKNb3xLAhdDten-13" style="edgeStyle=orthogonalEdgeStyle;rounded=0;orthogonalLoop=1;jettySize=auto;html=1;entryX=0.5;entryY=0;entryDx=0;entryDy=0;" edge="1" parent="1" source="k8R-MSBKNb3xLAhdDten-7" target="k8R-MSBKNb3xLAhdDten-8">
          <mxGeometry relative="1" as="geometry" />
        </mxCell>
        <mxCell id="k8R-MSBKNb3xLAhdDten-7" value="printMatrixB(matrixB)" style="verticalLabelPosition=bottom;verticalAlign=top;html=1;shape=process;whiteSpace=wrap;rounded=1;size=0.14;arcSize=6;" vertex="1" parent="1">
          <mxGeometry x="375" y="530" width="100" height="60" as="geometry" />
        </mxCell>
        <mxCell id="k8R-MSBKNb3xLAhdDten-8" value="printResultMatrix(result)" style="verticalLabelPosition=bottom;verticalAlign=top;html=1;shape=process;whiteSpace=wrap;rounded=1;size=0.14;arcSize=6;" vertex="1" parent="1">
          <mxGeometry x="375" y="650" width="100" height="60" as="geometry" />
        </mxCell>
        <mxCell id="k8R-MSBKNb3xLAhdDten-14" style="edgeStyle=orthogonalEdgeStyle;rounded=0;orthogonalLoop=1;jettySize=auto;html=1;entryX=0.5;entryY=0;entryDx=0;entryDy=0;entryPerimeter=0;" edge="1" parent="1" source="k8R-MSBKNb3xLAhdDten-8" target="k8R-MSBKNb3xLAhdDten-2">
          <mxGeometry relative="1" as="geometry" />
        </mxCell>
        <mxCell id="k8R-MSBKNb3xLAhdDten-20" style="edgeStyle=orthogonalEdgeStyle;rounded=0;orthogonalLoop=1;jettySize=auto;html=1;entryX=0.5;entryY=0;entryDx=0;entryDy=0;" edge="1" parent="1" source="k8R-MSBKNb3xLAhdDten-15" target="k8R-MSBKNb3xLAhdDten-17">
          <mxGeometry relative="1" as="geometry" />
        </mxCell>
        <mxCell id="k8R-MSBKNb3xLAhdDten-15" value="&lt;font style=&quot;font-size: 16px;&quot;&gt;readMatrixA(matrix[rows_a][cols_a], *filename)&lt;/font&gt;" style="strokeWidth=2;html=1;shape=mxgraph.flowchart.start_1;whiteSpace=wrap;" vertex="1" parent="1">
          <mxGeometry x="660" y="40" width="220" height="110" as="geometry" />
        </mxCell>
        <mxCell id="k8R-MSBKNb3xLAhdDten-21" style="edgeStyle=orthogonalEdgeStyle;rounded=0;orthogonalLoop=1;jettySize=auto;html=1;entryX=0.5;entryY=0;entryDx=0;entryDy=0;" edge="1" parent="1" source="k8R-MSBKNb3xLAhdDten-17" target="k8R-MSBKNb3xLAhdDten-18">
          <mxGeometry relative="1" as="geometry" />
        </mxCell>
        <mxCell id="k8R-MSBKNb3xLAhdDten-17" value="file = fgets(file)" style="rounded=1;whiteSpace=wrap;html=1;absoluteArcSize=1;arcSize=14;strokeWidth=2;" vertex="1" parent="1">
          <mxGeometry x="707.5" y="210" width="125" height="70" as="geometry" />
        </mxCell>
        <mxCell id="k8R-MSBKNb3xLAhdDten-22" style="edgeStyle=orthogonalEdgeStyle;rounded=0;orthogonalLoop=1;jettySize=auto;html=1;entryX=0.5;entryY=0;entryDx=0;entryDy=0;" edge="1" parent="1" source="k8R-MSBKNb3xLAhdDten-18" target="k8R-MSBKNb3xLAhdDten-19">
          <mxGeometry relative="1" as="geometry" />
        </mxCell>
        <mxCell id="k8R-MSBKNb3xLAhdDten-18" value="for i &amp;lt; rows_a, i++" style="rhombus;whiteSpace=wrap;html=1;" vertex="1" parent="1">
          <mxGeometry x="687.5" y="350" width="165" height="90" as="geometry" />
        </mxCell>
        <mxCell id="k8R-MSBKNb3xLAhdDten-23" style="edgeStyle=orthogonalEdgeStyle;rounded=0;orthogonalLoop=1;jettySize=auto;html=1;entryX=1;entryY=1;entryDx=0;entryDy=0;" edge="1" parent="1" source="k8R-MSBKNb3xLAhdDten-19" target="k8R-MSBKNb3xLAhdDten-18">
          <mxGeometry relative="1" as="geometry" />
        </mxCell>
        <mxCell id="k8R-MSBKNb3xLAhdDten-19" value="fscanf(file, &amp;amp;matrix[i][0], &amp;amp;matrix[i][1], &amp;amp;matrix[i][2]" style="rounded=1;whiteSpace=wrap;html=1;absoluteArcSize=1;arcSize=14;strokeWidth=2;" vertex="1" parent="1">
          <mxGeometry x="880" y="450" width="150" height="70" as="geometry" />
        </mxCell>
        <mxCell id="k8R-MSBKNb3xLAhdDten-24" value="&lt;font style=&quot;font-size: 24px;&quot;&gt;end&lt;/font&gt;" style="strokeWidth=2;html=1;shape=mxgraph.flowchart.start_1;whiteSpace=wrap;" vertex="1" parent="1">
          <mxGeometry x="720" y="520" width="100" height="60" as="geometry" />
        </mxCell>
        <mxCell id="k8R-MSBKNb3xLAhdDten-25" style="edgeStyle=orthogonalEdgeStyle;rounded=0;orthogonalLoop=1;jettySize=auto;html=1;entryX=0.5;entryY=0;entryDx=0;entryDy=0;entryPerimeter=0;" edge="1" parent="1" source="k8R-MSBKNb3xLAhdDten-18" target="k8R-MSBKNb3xLAhdDten-24">
          <mxGeometry relative="1" as="geometry" />
        </mxCell>
        <mxCell id="k8R-MSBKNb3xLAhdDten-26" style="edgeStyle=orthogonalEdgeStyle;rounded=0;orthogonalLoop=1;jettySize=auto;html=1;entryX=0.5;entryY=0;entryDx=0;entryDy=0;" edge="1" parent="1" source="k8R-MSBKNb3xLAhdDten-27" target="k8R-MSBKNb3xLAhdDten-29">
          <mxGeometry relative="1" as="geometry" />
        </mxCell>
        <mxCell id="k8R-MSBKNb3xLAhdDten-27" value="&lt;font style=&quot;font-size: 16px;&quot;&gt;readMatrixB(matrix[rows_b][cols_b], *filename)&lt;/font&gt;" style="strokeWidth=2;html=1;shape=mxgraph.flowchart.start_1;whiteSpace=wrap;" vertex="1" parent="1">
          <mxGeometry x="1120" y="40" width="220" height="110" as="geometry" />
        </mxCell>
        <mxCell id="k8R-MSBKNb3xLAhdDten-28" style="edgeStyle=orthogonalEdgeStyle;rounded=0;orthogonalLoop=1;jettySize=auto;html=1;entryX=0.5;entryY=0;entryDx=0;entryDy=0;" edge="1" parent="1" source="k8R-MSBKNb3xLAhdDten-29" target="k8R-MSBKNb3xLAhdDten-31">
          <mxGeometry relative="1" as="geometry" />
        </mxCell>
        <mxCell id="k8R-MSBKNb3xLAhdDten-29" value="file = fgets(file)" style="rounded=1;whiteSpace=wrap;html=1;absoluteArcSize=1;arcSize=14;strokeWidth=2;" vertex="1" parent="1">
          <mxGeometry x="1167.5" y="210" width="125" height="70" as="geometry" />
        </mxCell>
        <mxCell id="k8R-MSBKNb3xLAhdDten-30" style="edgeStyle=orthogonalEdgeStyle;rounded=0;orthogonalLoop=1;jettySize=auto;html=1;entryX=0.5;entryY=0;entryDx=0;entryDy=0;" edge="1" parent="1" source="k8R-MSBKNb3xLAhdDten-31" target="k8R-MSBKNb3xLAhdDten-33">
          <mxGeometry relative="1" as="geometry" />
        </mxCell>
        <mxCell id="k8R-MSBKNb3xLAhdDten-31" value="for i &amp;lt; rows_b, i++" style="rhombus;whiteSpace=wrap;html=1;" vertex="1" parent="1">
          <mxGeometry x="1147.5" y="350" width="165" height="90" as="geometry" />
        </mxCell>
        <mxCell id="k8R-MSBKNb3xLAhdDten-32" style="edgeStyle=orthogonalEdgeStyle;rounded=0;orthogonalLoop=1;jettySize=auto;html=1;entryX=1;entryY=1;entryDx=0;entryDy=0;" edge="1" parent="1" source="k8R-MSBKNb3xLAhdDten-33" target="k8R-MSBKNb3xLAhdDten-31">
          <mxGeometry relative="1" as="geometry" />
        </mxCell>
        <mxCell id="k8R-MSBKNb3xLAhdDten-33" value="fscanf(file, &amp;amp;matrix[i][0], &amp;amp;matrix[i][1]" style="rounded=1;whiteSpace=wrap;html=1;absoluteArcSize=1;arcSize=14;strokeWidth=2;" vertex="1" parent="1">
          <mxGeometry x="1340" y="450" width="150" height="70" as="geometry" />
        </mxCell>
        <mxCell id="k8R-MSBKNb3xLAhdDten-34" value="&lt;font style=&quot;font-size: 24px;&quot;&gt;end&lt;/font&gt;" style="strokeWidth=2;html=1;shape=mxgraph.flowchart.start_1;whiteSpace=wrap;" vertex="1" parent="1">
          <mxGeometry x="1180" y="520" width="100" height="60" as="geometry" />
        </mxCell>
        <mxCell id="k8R-MSBKNb3xLAhdDten-35" style="edgeStyle=orthogonalEdgeStyle;rounded=0;orthogonalLoop=1;jettySize=auto;html=1;entryX=0.5;entryY=0;entryDx=0;entryDy=0;entryPerimeter=0;" edge="1" parent="1" source="k8R-MSBKNb3xLAhdDten-31" target="k8R-MSBKNb3xLAhdDten-34">
          <mxGeometry relative="1" as="geometry" />
        </mxCell>
        <mxCell id="k8R-MSBKNb3xLAhdDten-41" style="edgeStyle=orthogonalEdgeStyle;rounded=0;orthogonalLoop=1;jettySize=auto;html=1;entryX=0.5;entryY=0;entryDx=0;entryDy=0;" edge="1" parent="1" source="k8R-MSBKNb3xLAhdDten-36" target="k8R-MSBKNb3xLAhdDten-37">
          <mxGeometry relative="1" as="geometry" />
        </mxCell>
        <mxCell id="k8R-MSBKNb3xLAhdDten-36" value="&lt;font style=&quot;font-size: 16px;&quot;&gt;multiplyMatrices(result[row_a][col_b], matrixA[row_a][col_a], matrixB[row_b][col_b]&lt;/font&gt;" style="strokeWidth=2;html=1;shape=mxgraph.flowchart.start_1;whiteSpace=wrap;" vertex="1" parent="1">
          <mxGeometry x="1560" y="40" width="330" height="140" as="geometry" />
        </mxCell>
        <mxCell id="k8R-MSBKNb3xLAhdDten-42" style="edgeStyle=orthogonalEdgeStyle;rounded=0;orthogonalLoop=1;jettySize=auto;html=1;entryX=0.5;entryY=0;entryDx=0;entryDy=0;" edge="1" parent="1" source="k8R-MSBKNb3xLAhdDten-37" target="k8R-MSBKNb3xLAhdDten-38">
          <mxGeometry relative="1" as="geometry" />
        </mxCell>
        <mxCell id="k8R-MSBKNb3xLAhdDten-37" value="for i &amp;lt; rows_a, i++" style="rhombus;whiteSpace=wrap;html=1;" vertex="1" parent="1">
          <mxGeometry x="1642.5" y="230" width="165" height="90" as="geometry" />
        </mxCell>
        <mxCell id="k8R-MSBKNb3xLAhdDten-43" style="edgeStyle=orthogonalEdgeStyle;rounded=0;orthogonalLoop=1;jettySize=auto;html=1;entryX=0.5;entryY=0;entryDx=0;entryDy=0;" edge="1" parent="1" source="k8R-MSBKNb3xLAhdDten-38" target="k8R-MSBKNb3xLAhdDten-39">
          <mxGeometry relative="1" as="geometry" />
        </mxCell>
        <mxCell id="k8R-MSBKNb3xLAhdDten-47" style="edgeStyle=orthogonalEdgeStyle;rounded=0;orthogonalLoop=1;jettySize=auto;html=1;entryX=1;entryY=1;entryDx=0;entryDy=0;" edge="1" parent="1" source="k8R-MSBKNb3xLAhdDten-38" target="k8R-MSBKNb3xLAhdDten-37">
          <mxGeometry relative="1" as="geometry" />
        </mxCell>
        <mxCell id="k8R-MSBKNb3xLAhdDten-38" value="for j &amp;lt; rows_b, j++" style="rhombus;whiteSpace=wrap;html=1;" vertex="1" parent="1">
          <mxGeometry x="1820" y="330" width="165" height="90" as="geometry" />
        </mxCell>
        <mxCell id="k8R-MSBKNb3xLAhdDten-44" style="edgeStyle=orthogonalEdgeStyle;rounded=0;orthogonalLoop=1;jettySize=auto;html=1;entryX=0.5;entryY=0;entryDx=0;entryDy=0;" edge="1" parent="1" source="k8R-MSBKNb3xLAhdDten-39" target="k8R-MSBKNb3xLAhdDten-40">
          <mxGeometry relative="1" as="geometry" />
        </mxCell>
        <mxCell id="k8R-MSBKNb3xLAhdDten-39" value="for k &amp;lt; cols_a, k++" style="rhombus;whiteSpace=wrap;html=1;" vertex="1" parent="1">
          <mxGeometry x="2010" y="400" width="165" height="90" as="geometry" />
        </mxCell>
        <mxCell id="k8R-MSBKNb3xLAhdDten-46" style="edgeStyle=orthogonalEdgeStyle;rounded=0;orthogonalLoop=1;jettySize=auto;html=1;entryX=1;entryY=1;entryDx=0;entryDy=0;" edge="1" parent="1" source="k8R-MSBKNb3xLAhdDten-40" target="k8R-MSBKNb3xLAhdDten-38">
          <mxGeometry relative="1" as="geometry" />
        </mxCell>
        <mxCell id="k8R-MSBKNb3xLAhdDten-40" value="result[i][j] += matrixA[i][k] * matrixB[k][j]" style="rounded=1;whiteSpace=wrap;html=1;absoluteArcSize=1;arcSize=14;strokeWidth=2;" vertex="1" parent="1">
          <mxGeometry x="1987.5" y="510" width="230" height="40" as="geometry" />
        </mxCell>
        <mxCell id="k8R-MSBKNb3xLAhdDten-48" value="&lt;font style=&quot;font-size: 24px;&quot;&gt;end&lt;/font&gt;" style="strokeWidth=2;html=1;shape=mxgraph.flowchart.start_1;whiteSpace=wrap;" vertex="1" parent="1">
          <mxGeometry x="1675" y="580" width="100" height="60" as="geometry" />
        </mxCell>
        <mxCell id="k8R-MSBKNb3xLAhdDten-49" style="edgeStyle=orthogonalEdgeStyle;rounded=0;orthogonalLoop=1;jettySize=auto;html=1;entryX=0.5;entryY=0;entryDx=0;entryDy=0;entryPerimeter=0;" edge="1" parent="1" source="k8R-MSBKNb3xLAhdDten-37" target="k8R-MSBKNb3xLAhdDten-48">
          <mxGeometry relative="1" as="geometry" />
        </mxCell>
        <mxCell id="k8R-MSBKNb3xLAhdDten-55" style="edgeStyle=orthogonalEdgeStyle;rounded=0;orthogonalLoop=1;jettySize=auto;html=1;entryX=0.5;entryY=0;entryDx=0;entryDy=0;" edge="1" parent="1" source="k8R-MSBKNb3xLAhdDten-50" target="k8R-MSBKNb3xLAhdDten-51">
          <mxGeometry relative="1" as="geometry" />
        </mxCell>
        <mxCell id="k8R-MSBKNb3xLAhdDten-50" value="&lt;font style=&quot;font-size: 16px;&quot;&gt;printMatrixA(matrix[rows_a][cols_a]&lt;/font&gt;" style="strokeWidth=2;html=1;shape=mxgraph.flowchart.start_1;whiteSpace=wrap;" vertex="1" parent="1">
          <mxGeometry x="2310" y="40" width="270" height="90" as="geometry" />
        </mxCell>
        <mxCell id="k8R-MSBKNb3xLAhdDten-56" style="edgeStyle=orthogonalEdgeStyle;rounded=0;orthogonalLoop=1;jettySize=auto;html=1;entryX=0.5;entryY=0;entryDx=0;entryDy=0;" edge="1" parent="1" source="k8R-MSBKNb3xLAhdDten-51" target="k8R-MSBKNb3xLAhdDten-52">
          <mxGeometry relative="1" as="geometry" />
        </mxCell>
        <mxCell id="k8R-MSBKNb3xLAhdDten-51" value="output&lt;div&gt;&quot;Matrix A from file1 =&quot;&lt;/div&gt;" style="shape=parallelogram;perimeter=parallelogramPerimeter;whiteSpace=wrap;html=1;fixedSize=1;" vertex="1" parent="1">
          <mxGeometry x="2372.5" y="180" width="145" height="70" as="geometry" />
        </mxCell>
        <mxCell id="k8R-MSBKNb3xLAhdDten-57" style="edgeStyle=orthogonalEdgeStyle;rounded=0;orthogonalLoop=1;jettySize=auto;html=1;entryX=0.5;entryY=0;entryDx=0;entryDy=0;" edge="1" parent="1" source="k8R-MSBKNb3xLAhdDten-52" target="k8R-MSBKNb3xLAhdDten-53">
          <mxGeometry relative="1" as="geometry" />
        </mxCell>
        <mxCell id="k8R-MSBKNb3xLAhdDten-52" value="for i &amp;lt; rows_a, i++" style="rhombus;whiteSpace=wrap;html=1;" vertex="1" parent="1">
          <mxGeometry x="2362.5" y="300" width="165" height="90" as="geometry" />
        </mxCell>
        <mxCell id="k8R-MSBKNb3xLAhdDten-58" style="edgeStyle=orthogonalEdgeStyle;rounded=0;orthogonalLoop=1;jettySize=auto;html=1;entryX=0.5;entryY=0;entryDx=0;entryDy=0;" edge="1" parent="1" source="k8R-MSBKNb3xLAhdDten-53" target="k8R-MSBKNb3xLAhdDten-54">
          <mxGeometry relative="1" as="geometry" />
        </mxCell>
        <mxCell id="k8R-MSBKNb3xLAhdDten-53" value="for j &amp;lt; cols_a, j++" style="rhombus;whiteSpace=wrap;html=1;" vertex="1" parent="1">
          <mxGeometry x="2537.5" y="380" width="165" height="90" as="geometry" />
        </mxCell>
        <mxCell id="k8R-MSBKNb3xLAhdDten-59" style="edgeStyle=orthogonalEdgeStyle;rounded=0;orthogonalLoop=1;jettySize=auto;html=1;entryX=1;entryY=1;entryDx=0;entryDy=0;" edge="1" parent="1" source="k8R-MSBKNb3xLAhdDten-54" target="k8R-MSBKNb3xLAhdDten-52">
          <mxGeometry relative="1" as="geometry" />
        </mxCell>
        <mxCell id="k8R-MSBKNb3xLAhdDten-54" value="output matrix[i][j]" style="shape=parallelogram;perimeter=parallelogramPerimeter;whiteSpace=wrap;html=1;fixedSize=1;" vertex="1" parent="1">
          <mxGeometry x="2547.5" y="520" width="145" height="70" as="geometry" />
        </mxCell>
        <mxCell id="k8R-MSBKNb3xLAhdDten-60" value="&lt;font style=&quot;font-size: 24px;&quot;&gt;end&lt;/font&gt;" style="strokeWidth=2;html=1;shape=mxgraph.flowchart.start_1;whiteSpace=wrap;" vertex="1" parent="1">
          <mxGeometry x="2395" y="600" width="100" height="60" as="geometry" />
        </mxCell>
        <mxCell id="k8R-MSBKNb3xLAhdDten-61" style="edgeStyle=orthogonalEdgeStyle;rounded=0;orthogonalLoop=1;jettySize=auto;html=1;entryX=0.5;entryY=0;entryDx=0;entryDy=0;entryPerimeter=0;" edge="1" parent="1" source="k8R-MSBKNb3xLAhdDten-52" target="k8R-MSBKNb3xLAhdDten-60">
          <mxGeometry relative="1" as="geometry" />
        </mxCell>
        <mxCell id="k8R-MSBKNb3xLAhdDten-62" style="edgeStyle=orthogonalEdgeStyle;rounded=0;orthogonalLoop=1;jettySize=auto;html=1;entryX=0.5;entryY=0;entryDx=0;entryDy=0;" edge="1" parent="1" source="k8R-MSBKNb3xLAhdDten-63" target="k8R-MSBKNb3xLAhdDten-65">
          <mxGeometry relative="1" as="geometry" />
        </mxCell>
        <mxCell id="k8R-MSBKNb3xLAhdDten-63" value="&lt;font style=&quot;font-size: 16px;&quot;&gt;printMatrixB(matrix[rows_b][cols_b]&lt;/font&gt;" style="strokeWidth=2;html=1;shape=mxgraph.flowchart.start_1;whiteSpace=wrap;" vertex="1" parent="1">
          <mxGeometry x="2779" y="40" width="270" height="90" as="geometry" />
        </mxCell>
        <mxCell id="k8R-MSBKNb3xLAhdDten-64" style="edgeStyle=orthogonalEdgeStyle;rounded=0;orthogonalLoop=1;jettySize=auto;html=1;entryX=0.5;entryY=0;entryDx=0;entryDy=0;" edge="1" parent="1" source="k8R-MSBKNb3xLAhdDten-65" target="k8R-MSBKNb3xLAhdDten-67">
          <mxGeometry relative="1" as="geometry" />
        </mxCell>
        <mxCell id="k8R-MSBKNb3xLAhdDten-65" value="output&lt;div&gt;&quot;Matrix B from file2 =&quot;&lt;/div&gt;" style="shape=parallelogram;perimeter=parallelogramPerimeter;whiteSpace=wrap;html=1;fixedSize=1;" vertex="1" parent="1">
          <mxGeometry x="2841.5" y="180" width="145" height="70" as="geometry" />
        </mxCell>
        <mxCell id="k8R-MSBKNb3xLAhdDten-66" style="edgeStyle=orthogonalEdgeStyle;rounded=0;orthogonalLoop=1;jettySize=auto;html=1;entryX=0.5;entryY=0;entryDx=0;entryDy=0;" edge="1" parent="1" source="k8R-MSBKNb3xLAhdDten-67" target="k8R-MSBKNb3xLAhdDten-69">
          <mxGeometry relative="1" as="geometry" />
        </mxCell>
        <mxCell id="k8R-MSBKNb3xLAhdDten-67" value="for i &amp;lt; rows_b, i++" style="rhombus;whiteSpace=wrap;html=1;" vertex="1" parent="1">
          <mxGeometry x="2831.5" y="300" width="165" height="90" as="geometry" />
        </mxCell>
        <mxCell id="k8R-MSBKNb3xLAhdDten-75" style="edgeStyle=orthogonalEdgeStyle;rounded=0;orthogonalLoop=1;jettySize=auto;html=1;entryX=0.5;entryY=0;entryDx=0;entryDy=0;" edge="1" parent="1" source="k8R-MSBKNb3xLAhdDten-69" target="k8R-MSBKNb3xLAhdDten-74">
          <mxGeometry relative="1" as="geometry" />
        </mxCell>
        <mxCell id="k8R-MSBKNb3xLAhdDten-69" value="for j &amp;lt; cols_b, j++" style="rhombus;whiteSpace=wrap;html=1;" vertex="1" parent="1">
          <mxGeometry x="3006.5" y="380" width="165" height="90" as="geometry" />
        </mxCell>
        <mxCell id="k8R-MSBKNb3xLAhdDten-72" value="&lt;font style=&quot;font-size: 24px;&quot;&gt;end&lt;/font&gt;" style="strokeWidth=2;html=1;shape=mxgraph.flowchart.start_1;whiteSpace=wrap;" vertex="1" parent="1">
          <mxGeometry x="2864" y="600" width="100" height="60" as="geometry" />
        </mxCell>
        <mxCell id="k8R-MSBKNb3xLAhdDten-73" style="edgeStyle=orthogonalEdgeStyle;rounded=0;orthogonalLoop=1;jettySize=auto;html=1;entryX=0.5;entryY=0;entryDx=0;entryDy=0;entryPerimeter=0;" edge="1" parent="1" source="k8R-MSBKNb3xLAhdDten-67" target="k8R-MSBKNb3xLAhdDten-72">
          <mxGeometry relative="1" as="geometry" />
        </mxCell>
        <mxCell id="k8R-MSBKNb3xLAhdDten-76" style="edgeStyle=orthogonalEdgeStyle;rounded=0;orthogonalLoop=1;jettySize=auto;html=1;entryX=1;entryY=1;entryDx=0;entryDy=0;" edge="1" parent="1" source="k8R-MSBKNb3xLAhdDten-74" target="k8R-MSBKNb3xLAhdDten-67">
          <mxGeometry relative="1" as="geometry" />
        </mxCell>
        <mxCell id="k8R-MSBKNb3xLAhdDten-74" value="output matrix[i][j]" style="shape=parallelogram;perimeter=parallelogramPerimeter;whiteSpace=wrap;html=1;fixedSize=1;" vertex="1" parent="1">
          <mxGeometry x="3016.5" y="520" width="145" height="70" as="geometry" />
        </mxCell>
        <mxCell id="k8R-MSBKNb3xLAhdDten-78" style="edgeStyle=orthogonalEdgeStyle;rounded=0;orthogonalLoop=1;jettySize=auto;html=1;entryX=0.5;entryY=0;entryDx=0;entryDy=0;" edge="1" parent="1" source="k8R-MSBKNb3xLAhdDten-79" target="k8R-MSBKNb3xLAhdDten-81">
          <mxGeometry relative="1" as="geometry" />
        </mxCell>
        <mxCell id="k8R-MSBKNb3xLAhdDten-79" value="&lt;font style=&quot;font-size: 16px;&quot;&gt;printResultMatrix(matrix[rows_a][cols_b]&lt;/font&gt;" style="strokeWidth=2;html=1;shape=mxgraph.flowchart.start_1;whiteSpace=wrap;" vertex="1" parent="1">
          <mxGeometry x="3230" y="40" width="270" height="90" as="geometry" />
        </mxCell>
        <mxCell id="k8R-MSBKNb3xLAhdDten-80" style="edgeStyle=orthogonalEdgeStyle;rounded=0;orthogonalLoop=1;jettySize=auto;html=1;entryX=0.5;entryY=0;entryDx=0;entryDy=0;" edge="1" parent="1" source="k8R-MSBKNb3xLAhdDten-81" target="k8R-MSBKNb3xLAhdDten-83">
          <mxGeometry relative="1" as="geometry" />
        </mxCell>
        <mxCell id="k8R-MSBKNb3xLAhdDten-81" value="output&lt;div&gt;&quot;Matrix A from file1 =&quot;&lt;/div&gt;" style="shape=parallelogram;perimeter=parallelogramPerimeter;whiteSpace=wrap;html=1;fixedSize=1;" vertex="1" parent="1">
          <mxGeometry x="3292.5" y="180" width="145" height="70" as="geometry" />
        </mxCell>
        <mxCell id="k8R-MSBKNb3xLAhdDten-82" style="edgeStyle=orthogonalEdgeStyle;rounded=0;orthogonalLoop=1;jettySize=auto;html=1;entryX=0.5;entryY=0;entryDx=0;entryDy=0;" edge="1" parent="1" source="k8R-MSBKNb3xLAhdDten-83" target="k8R-MSBKNb3xLAhdDten-85">
          <mxGeometry relative="1" as="geometry" />
        </mxCell>
        <mxCell id="k8R-MSBKNb3xLAhdDten-83" value="for i &amp;lt; rows_a, i++" style="rhombus;whiteSpace=wrap;html=1;" vertex="1" parent="1">
          <mxGeometry x="3282.5" y="300" width="165" height="90" as="geometry" />
        </mxCell>
        <mxCell id="k8R-MSBKNb3xLAhdDten-84" style="edgeStyle=orthogonalEdgeStyle;rounded=0;orthogonalLoop=1;jettySize=auto;html=1;entryX=0.5;entryY=0;entryDx=0;entryDy=0;" edge="1" parent="1" source="k8R-MSBKNb3xLAhdDten-85" target="k8R-MSBKNb3xLAhdDten-89">
          <mxGeometry relative="1" as="geometry" />
        </mxCell>
        <mxCell id="k8R-MSBKNb3xLAhdDten-85" value="for j &amp;lt; cols_b, j++" style="rhombus;whiteSpace=wrap;html=1;" vertex="1" parent="1">
          <mxGeometry x="3457.5" y="380" width="165" height="90" as="geometry" />
        </mxCell>
        <mxCell id="k8R-MSBKNb3xLAhdDten-86" value="&lt;font style=&quot;font-size: 24px;&quot;&gt;end&lt;/font&gt;" style="strokeWidth=2;html=1;shape=mxgraph.flowchart.start_1;whiteSpace=wrap;" vertex="1" parent="1">
          <mxGeometry x="3315" y="600" width="100" height="60" as="geometry" />
        </mxCell>
        <mxCell id="k8R-MSBKNb3xLAhdDten-87" style="edgeStyle=orthogonalEdgeStyle;rounded=0;orthogonalLoop=1;jettySize=auto;html=1;entryX=0.5;entryY=0;entryDx=0;entryDy=0;entryPerimeter=0;" edge="1" parent="1" source="k8R-MSBKNb3xLAhdDten-83" target="k8R-MSBKNb3xLAhdDten-86">
          <mxGeometry relative="1" as="geometry" />
        </mxCell>
        <mxCell id="k8R-MSBKNb3xLAhdDten-88" style="edgeStyle=orthogonalEdgeStyle;rounded=0;orthogonalLoop=1;jettySize=auto;html=1;entryX=1;entryY=1;entryDx=0;entryDy=0;" edge="1" parent="1" source="k8R-MSBKNb3xLAhdDten-89" target="k8R-MSBKNb3xLAhdDten-83">
          <mxGeometry relative="1" as="geometry" />
        </mxCell>
        <mxCell id="k8R-MSBKNb3xLAhdDten-89" value="output matrix[i][j]" style="shape=parallelogram;perimeter=parallelogramPerimeter;whiteSpace=wrap;html=1;fixedSize=1;" vertex="1" parent="1">
          <mxGeometry x="3467.5" y="520" width="145" height="70" as="geometry" />
        </mxCell>
      </root>
    </mxGraphModel>
  </diagram>
</mxfile>
